<svg viewBox="0 0 438 405" fill="none" xmlns="http://www.w3.org/2000/svg">
  <path
    d="M277.42 398.529C237.879 386.066 211.995 320.312 211.995 320.312C211.995 320.312 143.467 355.82 99.8234 345.341C33.5074 329.417 -2.30394 269.848 0.11504 201.428C2.01053 147.815 17.5732 98.2409 68.6645 82.5436C104.263 71.6063 162.141 101.315 162.141 101.315C162.141 101.315 154.512 65.616 162.141 45.0011C178.511 0.763491 227.473 -2.71054 274.313 1.20161C341.217 6.78956 403.563 52.8374 398.948 120.086C396.478 156.079 355.326 201.428 355.326 201.428C355.326 201.428 414.945 219.701 430.107 251.485C451.394 296.108 426.707 340.926 389.61 373.494C357.145 401.995 318.564 411.498 277.42 398.529Z"
    fill="currentColor" />
</svg>